<?xml version="1.0" encoding="iso-8859-1"?>
<!-- Generator: Adobe Illustrator 19.0.0, SVG Export Plug-In . SVG Version: 6.00 Build 0)  -->
<svg version="1.1" id="Layer_1" xmlns="http://www.w3.org/2000/svg" xmlns:xlink="http://www.w3.org/1999/xlink" x="0px" y="0px"
	 viewBox="0 0 512.034 512.034" style="enable-background:new 0 0 512.034 512.034;" xml:space="preserve">
<g>
	<g>
		<path fill="#ffab03" d="M255.216,338.25c-15.563,0.002-28.179,12.62-28.179,28.183c0.017,15.56,12.628,28.169,28.188,28.183
			c15.565-0.002,28.181-12.622,28.179-28.188C283.401,350.864,270.781,338.248,255.216,338.25z M255.216,377.55
			c-6.138-0.002-11.112-4.979-11.112-11.117c0.006-6.139,4.982-11.113,11.121-11.117c6.14,0.002,11.115,4.982,11.112,11.121
			C266.335,372.577,261.356,377.553,255.216,377.55z"/>
	</g>
</g>
<g>
	<g>
		<path fill="#ffab03" d="M77.308,338.25c-15.564,0.002-28.179,12.62-28.179,28.183c0.019,15.559,12.628,28.167,28.187,28.183
			c15.565-0.002,28.181-12.622,28.179-28.187S92.874,338.248,77.308,338.25z M77.308,377.55
			c-6.138-0.002-11.112-4.979-11.112-11.117c0.006-6.139,4.982-11.113,11.121-11.117c6.14,0.002,11.115,4.981,11.112,11.121
			C88.427,372.577,83.448,377.552,77.308,377.55z"/>
	</g>
</g>
<g>
	<g>
		<path fill="#ffab03" d="M507.767,319.15c-5.258-7.578-13.936-12.05-23.159-11.933h-83.541V238.95c-0.015-14.132-11.468-25.585-25.6-25.6h-46.728
			l-64.984-93.867h9.312c14.132-0.015,25.585-11.468,25.6-25.6c-0.07-14.109-11.491-25.53-25.6-25.6H24.663
			c-7.449,0.032-14.397,3.76-18.542,9.95c-4.808,6.952-5.906,15.818-2.942,23.733L3.188,102l37.275,99.358
			c2.096,5.803,5.825,10.877,10.737,14.61v40.048H25.6c-14.132,0.015-25.585,11.468-25.6,25.6v85.333
			c-0.001,4.712,3.817,8.532,8.529,8.533c0.001,0,0.003,0,0.004,0h1.944c0.778,5.852,2.329,11.575,4.613,17.019l-1.611,0.931
			c-4.079,2.364-5.47,7.587-3.106,11.667c2.36,4.072,7.57,5.466,11.647,3.117l1.689-0.976c3.679,4.817,7.984,9.121,12.801,12.8
			l-0.978,1.693c-2.354,4.083-0.953,9.302,3.13,11.657c4.081,2.353,9.296,0.955,11.653-3.124l0.922-1.597
			c5.609,2.343,11.512,3.911,17.544,4.659v1.888c0,4.713,3.82,8.533,8.533,8.533c4.713,0,8.533-3.82,8.533-8.533v-1.889
			c6.032-0.749,11.933-2.319,17.54-4.667l0.927,1.606c2.358,4.081,7.579,5.478,11.66,3.119c4.078-2.357,5.476-7.572,3.124-11.653
			l-0.996-1.726c4.801-3.683,9.09-7.989,12.752-12.806l1.757,1.016c4.082,2.359,9.304,0.962,11.663-3.121
			c2.359-4.082,0.962-9.304-3.121-11.663l-1.695-0.98c2.266-5.433,3.817-11.138,4.613-16.971h44.324
			c0.777,5.85,2.327,11.572,4.61,17.015l-1.619,0.935c-4.079,2.362-5.471,7.583-3.109,11.663c2.357,4.071,7.565,5.467,11.642,3.121
			l1.702-0.983c3.679,4.817,7.983,9.122,12.799,12.802l-0.98,1.697c-2.354,4.083-0.953,9.302,3.13,11.657
			c4.081,2.353,9.296,0.955,11.653-3.124l0.923-1.599c5.609,2.343,11.511,3.911,17.543,4.66v1.89c0,4.713,3.82,8.533,8.533,8.533
			c4.713,0,8.533-3.82,8.533-8.533v-1.887c6.032-0.749,11.934-2.318,17.542-4.665l0.925,1.602c2.362,4.079,7.583,5.471,11.663,3.109
			c4.071-2.357,5.467-7.565,3.121-11.642l-0.992-1.719c4.803-3.683,9.093-7.991,12.756-12.809l1.748,1.01
			c4.082,2.359,9.304,0.962,11.663-3.121c2.359-4.082,0.962-9.304-3.121-11.663l-1.684-0.973c2.268-5.435,3.819-11.141,4.615-16.976
			h2.273c4.712,0.001,8.532-3.817,8.533-8.529c0-0.001,0-0.003,0-0.004v-102.4h17.067v49.77c-7.91,6.744-10.655,17.773-6.829,27.438
			l0.021,0.05l24.037,59.658c4.341,10.258,14.471,16.858,25.608,16.683h67.925c11.11,0.179,21.222-6.387,25.579-16.608
			l24.071-59.758C513.314,334.298,512.37,325.787,507.767,319.15z M264.633,153.617c0.594-0.053,1.18-0.172,1.748-0.353
			l41.597,60.086h-52.008c-0.057-0.077-0.127-0.142-0.185-0.218c-0.321-0.422-0.685-0.799-1.02-1.207
			c-0.79-0.962-1.592-1.91-2.458-2.794c-0.461-0.471-0.955-0.897-1.436-1.345c-0.808-0.752-1.623-1.487-2.484-2.172
			c-0.551-0.438-1.12-0.843-1.691-1.253c-0.858-0.616-1.729-1.205-2.629-1.755c-0.611-0.374-1.228-0.728-1.857-1.071
			c-0.922-0.502-1.86-0.961-2.817-1.395c-0.156-0.071-0.303-0.159-0.459-0.227v-46.296H264.633z M234.64,261.115
			c-3.883,2.244-8.288,3.429-12.774,3.435c-14.138,0.02-25.616-11.425-25.636-25.564c-0.02-14.138,11.425-25.616,25.564-25.636
			c9.155-0.013,17.621,4.864,22.201,12.791C251.07,238.383,246.882,254.041,234.64,261.115z M40.782,153.617h70.151
			c4.713,0,8.533-3.821,8.533-8.533c0-4.713-3.82-8.533-8.533-8.533H34.38l-6.402-17.067H128c4.713,0,8.533-3.82,8.533-8.533
			s-3.82-8.533-8.533-8.533H21.576l-2.401-6.4c-1.014-2.676-0.657-5.678,0.954-8.042c0.989-1.566,2.683-2.547,4.533-2.625h248.404
			c2.298-0.005,4.496,0.939,6.075,2.608c1.591,1.559,2.479,3.698,2.458,5.925c-0.005,4.711-3.822,8.529-8.533,8.533h-66.05
			c-3.375,0.001-6.432,1.99-7.8,5.075l-39.379,88.742c-0.869,1.909-2.081,3.642-3.575,5.114c-2.254,2.173-5.248,3.413-8.378,3.47
			H68.692c-5.654-0.232-10.551-3.996-12.229-9.4L40.782,153.617z M80.333,221.883H107.4l34.133,34.133h-27.067L80.333,221.883z
			 M90.333,256.017H68.267V233.95L90.333,256.017z M131.533,221.883H153.6v22.067L131.533,221.883z M77.349,416.865l-0.032-0.006
			l-0.034,0.007c-27.617-0.073-50.062-22.3-50.403-49.915v-0.455l0.012-0.062l-0.009-0.042c0.023-2.363,0.209-4.722,0.557-7.059
			c0.085-0.603,0.169-1.206,0.276-1.802c0.366-2.095,0.861-4.165,1.482-6.199c0.307-0.974,0.686-1.915,1.05-2.863
			c0.324-0.869,0.68-1.72,1.049-2.567c6.959-15.515,21.256-26.489,38.043-29.199c1.109-0.166,2.219-0.362,3.325-0.458v0
			c0.484-0.044,0.98-0.044,1.468-0.074c1.475-0.087,2.947-0.134,4.41-0.099c0.519,0.013,1.031,0.05,1.545,0.078
			c1.38,0.075,2.751,0.204,4.114,0.387c0.6,0.083,1.198,0.171,1.792,0.275c1.197,0.206,2.38,0.473,3.556,0.764
			c0.715,0.18,1.437,0.343,2.14,0.553c0.919,0.27,1.816,0.611,2.718,0.934c3.776,1.356,7.374,3.161,10.719,5.375
			c0.157,0.104,0.317,0.2,0.473,0.305c1.25,0.854,2.459,1.762,3.626,2.726l0.284,0.236c4.72,3.958,8.681,8.743,11.689,14.119
			c0.176,0.316,0.372,0.619,0.542,0.939c0.501,0.939,0.938,1.917,1.381,2.891c0.344,0.763,0.687,1.524,0.993,2.305
			c0.319,0.805,0.609,1.625,0.889,2.451c0.346,1.032,0.659,2.077,0.938,3.135c0.184,0.688,0.372,1.375,0.528,2.074
			c0.29,1.31,0.511,2.641,0.701,3.981c0.073,0.521,0.177,1.031,0.235,1.556c0.217,1.913,0.329,3.837,0.335,5.763
			C127.414,394.539,104.973,416.783,77.349,416.865z M255.26,416.865l-0.035-0.007l-0.031,0.006
			c-27.614-0.075-50.055-22.302-50.394-49.914v-0.508c0.021-2.37,0.207-4.737,0.557-7.081c0.083-0.592,0.166-1.183,0.27-1.768
			c0.365-2.111,0.862-4.196,1.486-6.245c0.285-0.907,0.643-1.781,0.978-2.665c0.35-0.951,0.736-1.883,1.14-2.807
			c6.613-14.752,19.879-25.454,35.695-28.799c3.864-0.762,7.8-1.096,11.737-0.995l0,0l0.224,0.011
			c1.869,0.064,3.733,0.23,5.584,0.497l0.61,0.093c1.703,0.268,3.392,0.623,5.058,1.064c0.262,0.07,0.529,0.13,0.79,0.204
			c1.692,0.476,3.358,1.042,4.99,1.694c0.165,0.066,0.336,0.116,0.5,0.184c1.741,0.718,3.44,1.535,5.089,2.446
			c0.469,0.26,0.91,0.562,1.37,0.836c1.081,0.641,2.147,1.312,3.186,2.038c0.728,0.512,1.432,1.054,2.131,1.603
			c0.677,0.529,1.337,1.073,1.982,1.634c0.768,0.669,1.526,1.346,2.253,2.059c0.5,0.491,0.97,1.007,1.448,1.518
			c0.752,0.803,1.513,1.598,2.212,2.449c0.275,0.334,0.512,0.696,0.778,1.037c1.268,1.633,2.436,3.343,3.495,5.119
			c0.481,0.805,0.977,1.601,1.413,2.433c0.374,0.709,0.699,1.447,1.04,2.177c0.457,0.985,0.902,1.977,1.297,2.992
			c0.261,0.667,0.5,1.344,0.734,2.024c0.394,1.156,0.747,2.328,1.058,3.517c0.16,0.604,0.325,1.206,0.463,1.818
			c0.307,1.368,0.541,2.757,0.737,4.157c0.068,0.484,0.164,0.958,0.218,1.447c0.219,1.92,0.332,3.852,0.338,5.784
			C305.335,394.542,282.888,416.788,255.26,416.865z M315.733,336.6c-0.097-0.197-0.228-0.377-0.327-0.573
			c-1.002-1.974-2.094-3.89-3.277-5.746c-0.191-0.301-0.358-0.613-0.554-0.911c-1.396-2.124-2.91-4.167-4.535-6.121
			c-0.306-0.369-0.653-0.703-0.968-1.065c-1.295-1.486-2.642-2.922-4.06-4.29c-0.654-0.631-1.339-1.23-2.02-1.836
			c-1.22-1.086-2.478-2.126-3.773-3.121l-0.17-0.141l0.96-1.662c2.351-4.086,0.945-9.303-3.141-11.654
			c-4.078-2.346-9.285-0.951-11.642,3.121l-0.919,1.591l-0.272-0.1c-0.377-0.156-0.765-0.27-1.143-0.419
			c-1.952-0.769-3.941-1.455-5.977-2.043c-0.618-0.178-1.243-0.321-1.867-0.481c-1.853-0.478-3.733-0.878-5.641-1.202
			c-0.629-0.105-1.256-0.202-1.888-0.289c-0.255-0.035-0.505-0.084-0.76-0.117v-1.891c0-4.713-3.82-8.533-8.533-8.533
			c-4.713,0-8.533,3.82-8.533,8.533v1.893c-1.703,0.216-3.406,0.437-5.067,0.778c-2.891,0.558-5.746,1.288-8.549,2.187
			c-1.377,0.444-2.641,1.085-3.971,1.615l-0.879-1.523c-2.358-4.081-7.579-5.478-11.66-3.12c-4.078,2.357-5.476,7.572-3.124,11.653
			l0.769,1.332c-4.89,3.699-9.23,8.075-12.889,12.995l-1.406-0.811c-4.072-2.371-9.296-0.993-11.667,3.08
			c-2.371,4.072-0.993,9.296,3.08,11.667c0.021,0.012,0.042,0.024,0.063,0.036l1.507,0.869c-0.461,1.137-0.779,2.345-1.181,3.513
			c-0.423,1.183-0.845,2.364-1.203,3.577c-0.282,0.99-0.533,1.986-0.772,2.995c-0.601,2.434-1.065,4.899-1.389,7.384
			c-0.028,0.22-0.095,0.425-0.121,0.645h-43.909c-0.079-0.656-0.239-1.295-0.338-1.947c-0.224-1.504-0.453-3.005-0.776-4.476
			c-0.139-0.63-0.325-1.244-0.482-1.87c-0.4-1.601-0.821-3.191-1.333-4.744c-0.197-0.598-0.436-1.179-0.649-1.771
			c-0.393-1.089-0.747-2.196-1.195-3.257l1.592-0.918c4.092-2.336,5.516-7.548,3.18-11.641c-2.336-4.092-7.548-5.516-11.641-3.18
			c-0.021,0.012-0.043,0.024-0.064,0.037l-1.644,0.948c-0.237-0.313-0.498-0.609-0.741-0.918c-0.482-0.61-0.959-1.219-1.462-1.811
			c-1.006-1.195-2.062-2.343-3.153-3.468c-0.387-0.397-0.773-0.792-1.17-1.18c-1.213-1.191-2.473-2.336-3.779-3.435
			c-0.345-0.29-0.695-0.572-1.047-0.856c-0.487-0.394-0.955-0.808-1.454-1.189l0.928-1.608c2.358-4.081,0.962-9.301-3.12-11.66
			c-4.081-2.358-9.301-0.962-11.66,3.12c-0.001,0.002-0.003,0.005-0.004,0.007l-0.903,1.563c-1.078-0.451-2.196-0.776-3.293-1.169
			c-1.128-0.407-2.246-0.83-3.401-1.177c-1.102-0.329-2.217-0.588-3.334-0.86c-1.331-0.327-2.668-0.63-4.029-0.877
			c-1.035-0.185-2.074-0.341-3.119-0.478l-0.388-0.06v-1.893c0-4.713-3.82-8.533-8.533-8.533c-4.713,0-8.533,3.82-8.533,8.533v1.891
			c-0.629,0.08-1.248,0.19-1.871,0.286c-3.82,0.532-7.593,1.364-11.283,2.489c-1.538,0.485-3.017,1.092-4.5,1.691l-0.812-1.408
			c-2.354-4.083-7.573-5.485-11.657-3.13c-4.083,2.354-5.485,7.573-3.13,11.657c0.001,0.002,0.003,0.005,0.004,0.007l0.788,1.364
			c-7.552,5.832-13.773,13.207-18.249,21.633l-0.155,0.278c-0.272,0.516-0.591,1.003-0.85,1.526v-54.317
			c0.005-4.711,3.822-8.529,8.533-8.533h136.533c4.705-0.018,8.515-3.828,8.533-8.533v-53.692c0.35-0.429,0.643-0.917,0.975-1.365
			c0.296-0.401,0.584-0.795,0.865-1.211c1.1-1.598,2.066-3.284,2.89-5.04l37.171-83.759h30.429l11.815,17.067H230.4
			c-4.712-0.001-8.532,3.817-8.533,8.529c0,0.001,0,0.003,0,0.004v51.2c-23.564,0-42.667,19.103-42.667,42.667
			s19.103,42.667,42.667,42.667c1.787-0.006,3.573-0.125,5.345-0.357c0.582-0.074,1.147-0.21,1.724-0.308
			c1.173-0.199,2.341-0.41,3.487-0.705c0.659-0.169,1.299-0.388,1.948-0.589c1.035-0.32,2.061-0.654,3.066-1.051
			c0.663-0.261,1.307-0.553,1.956-0.846c0.954-0.432,1.891-0.891,2.81-1.391c0.634-0.345,1.256-0.703,1.872-1.079
			c0.894-0.546,1.758-1.132,2.609-1.743c0.577-0.414,1.152-0.823,1.709-1.266c0.848-0.675,1.652-1.4,2.448-2.14
			c0.494-0.459,1.002-0.898,1.475-1.382c0.85-0.868,1.636-1.799,2.412-2.742c0.348-0.423,0.727-0.815,1.059-1.253
			c0.057-0.076,0.126-0.14,0.183-0.216h59.762L315.733,336.6z M366.933,332.817v-76.8c0.001-4.712-3.817-8.532-8.529-8.533
			c-0.001,0-0.003,0-0.004,0h-34.133h-60.608c0.065-0.314,0.04-0.639,0.098-0.954c1.036-5.001,1.036-10.16,0-15.161
			c-0.057-0.315-0.033-0.639-0.097-0.952h111.808c4.711,0.005,8.529,3.822,8.533,8.533v93.867c-0.005,4.711-3.822,8.529-8.533,8.533
			c-2.301,0.005-4.501-0.942-6.079-2.617C367.797,337.178,366.91,335.041,366.933,332.817z M494.442,335.425l-24.092,59.808
			c-1.787,3.711-5.605,6.009-9.721,5.85h-67.925c-4.142,0.155-7.977-2.176-9.746-5.925l-15.287-37.942
			c0.59,0.188,1.211,0.282,1.816,0.427c0.455,0.109,0.899,0.236,1.362,0.32c13.796,2.643,27.122-6.398,29.765-20.194
			c0.313-1.632,0.465-3.29,0.454-4.952v-8.533h83.541c3.558-0.108,6.939,1.552,9.029,4.433
			C495.043,330.665,495.347,333.2,494.442,335.425z"/>
	</g>
</g>
<g>
	<g>
		<path fill="#ffab03" d="M229.742,235.709c-0.433-1.034-1.039-1.986-1.792-2.817c-3.421-3.158-8.695-3.158-12.117,0
			c-0.782,0.825-1.417,1.778-1.879,2.817c-0.794,2.088-0.794,4.395,0,6.483c0.464,1.038,1.099,1.99,1.879,2.817
			c3.365,3.3,8.752,3.3,12.117,0c0.751-0.832,1.357-1.784,1.792-2.817C230.653,240.127,230.653,237.774,229.742,235.709z"/>
	</g>
</g>
<g>
</g>
<g>
</g>
<g>
</g>
<g>
</g>
<g>
</g>
<g>
</g>
<g>
</g>
<g>
</g>
<g>
</g>
<g>
</g>
<g>
</g>
<g>
</g>
<g>
</g>
<g>
</g>
<g>
</g>
</svg>
