<svg height="512pt" viewBox="0 -16 512.00011 512" width="512pt" xmlns="http://www.w3.org/2000/svg">
	<path fill="#ffab03" d="m174.800781 73.804688c1.683594 1.097656 3.578125 1.625 5.449219 1.625 3.277344 0 6.484375-1.605469 8.402344-4.554688 3.019531-4.632812 1.707031-10.835938-2.929688-13.851562l-.277344-.183594c-4.632812-3.015625-10.835937-1.703125-13.855468 2.933594-3.015625 4.632812-1.703125 10.835937 2.933594 13.851562zm0 0"/>
	<path fill="#ffab03" d="m339.277344 257.878906h-12.847656c-5.53125 0-10.015626 4.484375-10.015626 10.011719v33.234375c0 5.527344 4.484376 10.011719 10.015626 10.011719h175.226562c5.53125 0 10.015625-4.484375 10.015625-10.011719v-33.234375c0-5.527344-4.484375-10.011719-10.015625-10.011719h-10.132812v-192.554687c0-5.53125-4.484376-10.015625-10.015626-10.015625h-225.734374v-35.28125h11.519531c5.53125 0 10.011719-4.484375 10.011719-10.015625 0-5.527344-4.480469-10.011719-10.011719-10.011719h-174.34375c-5.527344 0-10.011719 4.484375-10.011719 10.011719 0 5.53125 4.484375 10.015625 10.011719 10.015625h10.039062v35.28125h-82.960937v-23.804688c0-5.53125-4.484375-10.015625-10.015625-10.015625-5.527344 0-10.011719 4.484375-10.011719 10.015625v198.121094c0 5.53125 4.484375 10.015625 10.011719 10.015625 5.53125 0 10.015625-4.484375 10.015625-10.015625v-154.289062h121.003906c5.527344 0 10.011719-4.480469 10.011719-10.011719s-4.484375-10.015625-10.011719-10.015625h-18.015625v-35.28125h112.730469v35.28125h-15.792969c-5.527344 0-10.011719 4.484375-10.011719 10.015625s4.484375 10.011719 10.011719 10.011719h119.324219v36.976562c0 5.53125 4.480468 10.011719 10.011718 10.011719s10.011719-4.480469 10.011719-10.011719v-36.976562h112.195313v182.542968h-112.191406v-50.324218h53.234374c5.53125 0 10.015626-4.480469 10.015626-10.011719s-4.484376-10.011719-10.015626-10.011719h-289.554687v-33.246094c0-5.527344-4.480469-10.011718-10.011719-10.011718s-10.011718 4.484374-10.011718 10.011718v33.246094h-45.269532c-5.53125 0-10.015625 4.480469-10.015625 10.011719s4.484375 10.011719 10.015625 10.011719h53.277344c.648438.132812 1.316406.203124 2.003906.203124s1.355469-.070312 2.003906-.203124h224.300782zm142.230468 20.027344h10.136719v13.203125h-155.203125v-13.203125zm0 0"/>
	<path fill="#ffab03" d="m412.53125 326.636719c-4.65625 0-8.949219 2.335937-11.480469 6.246093-16.1875 24.980469-43.34375 70.191407-43.34375 92.300782 0 30.230468 24.59375 54.824218 54.824219 54.824218s54.828125-24.59375 54.828125-54.824218c0-22.105469-27.15625-67.320313-43.34375-92.304688-2.535156-3.90625-6.824219-6.242187-11.484375-6.242187zm0 133.347656c-19.1875 0-34.796875-15.613281-34.796875-34.800781 0-10.953125 13.480469-39.125 34.796875-73.070313 21.320312 33.945313 34.800781 62.117188 34.800781 73.070313 0 19.1875-15.609375 34.800781-34.800781 34.800781zm0 0"/>
	<path fill="#ffab03" d="m511.183594 350.050781c-2.1875-5.078125-8.074219-7.425781-13.15625-5.242187l-11.628906 5.003906c-5.078126 2.183594-7.425782 8.074219-5.242188 13.152344 1.628906 3.792968 5.324219 6.0625 9.203125 6.0625 1.320313 0 2.660156-.265625 3.953125-.816406l11.628906-5.003907c5.078125-2.183593 7.425782-8.074219 5.242188-13.15625zm0 0"/>
	<path fill="#ffab03" d="m489.59375 378.535156-12.660156.003906c-5.53125.003907-10.011719 4.484376-10.011719 10.015626.003906 5.53125 4.484375 10.011718 10.015625 10.011718l12.660156-.003906c5.53125-.003906 10.011719-4.488281 10.011719-10.015625-.003906-5.53125-4.484375-10.011719-10.015625-10.011719zm0 0"/>
	<path fill="#ffab03" d="m461.042969 331.113281-8.851563 9.050781c-3.867187 3.953126-3.796875 10.292969.15625 14.160157 1.945313 1.90625 4.472656 2.855469 7 2.855469 2.601563 0 5.195313-1.007813 7.160156-3.011719l8.851563-9.050781c3.867187-3.953126 3.796875-10.292969-.160156-14.160157-3.953125-3.867187-10.289063-3.796875-14.15625.15625zm0 0"/>
	<path fill="#ffab03" d="m326.746094 372.546875c3.878906 0 7.574218-2.269531 9.203125-6.058594 2.183593-5.082031-.164063-10.972656-5.242188-13.15625l-11.628906-5.003906c-5.078125-2.179687-10.96875.164063-13.15625 5.242187-2.183594 5.082032.164063 10.96875 5.242187 13.15625l11.628907 5c1.292969.558594 2.632812.820313 3.953125.820313zm0 0"/>
	<path fill="#ffab03" d="m340.171875 382.058594-12.65625-.003906c-.003906 0-.003906 0-.003906 0-5.527344 0-10.011719 4.480468-10.011719 10.011718-.003906 5.527344 4.476562 10.011719 10.007812 10.015625l12.660157.003907h.003906c5.527344 0 10.011719-4.484376 10.011719-10.011719.003906-5.527344-4.480469-10.011719-10.011719-10.015625zm0 0"/>
	<path fill="#ffab03" d="m364.761719 357.84375c3.953125-3.867188 4.023437-10.207031.15625-14.160156l-8.851563-9.050782c-3.867187-3.953124-10.207031-4.023437-14.160156-.15625-3.953125 3.867188-4.023438 10.207032-.15625 14.160157l8.851562 9.050781c1.960938 2.003906 4.558594 3.011719 7.160157 3.011719 2.523437 0 5.050781-.949219 7-2.855469zm0 0"/>
</svg>