<?xml version="1.0" encoding="iso-8859-1"?>
<!-- Generator: Adobe Illustrator 19.0.0, SVG Export Plug-In . SVG Version: 6.00 Build 0)  -->
<svg version="1.1" fill="#fff" id="Capa_1" xmlns="http://www.w3.org/2000/svg" xmlns:xlink="http://www.w3.org/1999/xlink" x="0px" y="0px"
	 viewBox="0 0 480.014 480.014" style="enable-background:new 0 0 480.014 480.014;" xml:space="preserve">
<g>
	<g>
		<path d="M464.007,32v112h-24v-32h-16v32h-16V80h-16v64h-88v-32h-16v32h-16v-16h-16v16h-16V0h-16v16h-216c-4.418,0-8,3.582-8,8v432
			c0,4.418,3.582,8,8,8h321.472c4.335,12.442,17.935,19.014,30.376,14.68c6.877-2.396,12.284-7.802,14.68-14.68h81.472
			c4.418,0,8-3.582,8-8V240h8c4.418,0,8-3.582,8-8V32H464.007z M328.007,448h-312V32h208v16h-184c-4.418,0-8,3.582-8,8v368
			c0,4.418,3.582,8,8,8h288V448z M64.007,280v32h16v-32h18.4l50.104,136H48.007V280H64.007z M48.007,264v-16h48v16H48.007z
			 M48.007,232V64h16v56h16V64h16v32h16V64h64v9.544c0.131,61.4-27.388,119.597-74.928,158.456H48.007z M328.007,416h-162.4
			l-53.6-145.432v-26.76c50.811-41.917,80.167-104.395,80-170.264V64h32v136v32c0,4.418,3.582,8,8,8h88v16
			c0.029,7.722,2.873,15.169,8,20.944V416z M360.007,456c0,4.418-3.582,8-8,8s-8-3.582-8-8V320h16V456z M360.007,304h-16v-17.136
			c5.226,1.515,10.774,1.515,16,0V304z M368.007,256c0,8.837-7.163,16-16,16s-16-7.163-16-16v-16h32V256z M448.007,448h-72v-16h48
			c4.418,0,8-3.582,8-8V240h16V448z M376.007,416V276.944c5.127-5.775,7.971-13.222,8-20.944v-16h32v176H376.007z M464.007,224h-88
			h-136v-16h224V224z M464.007,192h-224v-32h224V192z"/>
	</g>
</g>
<g>
	<g>
		<rect x="328.007" y="16" width="16" height="40"/>
	</g>
</g>
<g>
	<g>
		<rect x="288.007" y="80" width="16" height="16"/>
	</g>
</g>
<g>
	<g>
		<rect x="392.007" y="48" width="16" height="16"/>
	</g>
</g>
<g>
	<g>
		<rect x="464.007" width="16" height="16"/>
	</g>
</g>
<g>
	<g>
		<rect x="64.007" y="136" width="16" height="16"/>
	</g>
</g>
<g>
	<g>
		<rect x="175.408" y="317.403" transform="matrix(0.7071 -0.7071 0.7071 0.7071 -162.26 259.0882)" width="112.4" height="16"/>
	</g>
</g>
<g>
	<g>
		<rect x="176.799" y="294.744" transform="matrix(0.7071 -0.7071 0.7071 0.7071 -152.8582 236.4563)" width="64.4" height="16"/>
	</g>
</g>
<g>
	<g>
		<rect x="222.04" y="340.013" transform="matrix(0.7071 -0.7071 0.7071 0.7071 -171.6169 281.7052)" width="64.4" height="16"/>
	</g>
</g>
<g>
</g>
<g>
</g>
<g>
</g>
<g>
</g>
<g>
</g>
<g>
</g>
<g>
</g>
<g>
</g>
<g>
</g>
<g>
</g>
<g>
</g>
<g>
</g>
<g>
</g>
<g>
</g>
<g>
</g>
</svg>
